<svg xmlns="http://www.w3.org/2000/svg" width="128" height="128" fill="none" viewBox="0 0 128 128" id="shopping-cart"><path stroke="#000" stroke-linecap="round" stroke-width="6" d="M38.5355 42.8938L93.2893 37.7976C98.3141 37.3299 102.511 41.5745 101.987 46.5938L100.084 64.8306C99.6585 68.9051 96.2238 72 92.1271 72L42.2 72M38.5355 42.8938L42.2 72M38.5355 42.8938L37.5672 35.0232C37.0739 31.0129 33.6676 28 29.6271 28L26 28M42.2 72L43.3312 78.3937C44.0073 82.215 47.3283 85 51.2089 85L90.5 85M62 69.1884L58 41.0822M83.5 69L79.5 40.8938"></path><circle cx="50" cy="98" r="5" fill="#000"></circle><circle cx="86" cy="98" r="5" fill="#000"></circle></svg>